<?xml version="1.0" encoding="iso-8859-1"?>
<!-- Generator: Adobe Illustrator 19.0.0, SVG Export Plug-In . SVG Version: 6.00 Build 0)  -->
<svg version="1.1" id="Layer_1" xmlns="http://www.w3.org/2000/svg" xmlns:xlink="http://www.w3.org/1999/xlink" x="0px" y="0px"
	 viewBox="0 0 512 512" style="enable-background:new 0 0 512 512;" xml:space="preserve">
<g>
	<g>
		<path d="M437.019,74.982C388.667,26.628,324.379,0,256,0S123.333,26.628,74.981,74.982C26.628,123.333,0,187.621,0,256
			s26.628,132.667,74.981,181.018C123.333,485.372,187.621,512,256,512s132.667-26.628,181.019-74.981S512,324.379,512,256
			S485.372,123.333,437.019,74.982z M256,495.832C123.756,495.832,16.168,388.244,16.168,256S123.756,16.168,256,16.168
			S495.832,123.756,495.832,256S388.244,495.832,256,495.832z"/>
	</g>
</g>
<g>
	<g>
		<path d="M381.158,138.528c-30.234-31.708-77.064-50.638-125.272-50.638c-87.667,0-158.989,60.908-158.989,135.774
			c0,5.696,0.417,11.431,1.24,17.046c0.205,1.396,0.705,2.751,1.561,3.873c2.06,2.7,5.439,3.767,8.536,2.949l60.553-16.054
			c3.545-0.94,6.013-4.148,6.013-7.815c0-37.148,36.376-67.368,81.088-67.368c19.958,0,39.288,6.05,54.214,16.616
			c3.145,2.227,7.456,1.795,10.181-0.93c0.038-0.038,0.077-0.077,0.114-0.114c3.501-3.501,3.019-9.324-1.026-12.177
			c-17.644-12.441-40.258-19.562-63.483-19.562c-51.162,0-93.225,34.111-96.982,77.244l-45.672,12.108
			c-0.111-1.938-0.167-3.879-0.167-5.816c0-65.951,64.069-119.605,142.821-119.605c43.873,0,86.329,17.057,113.57,45.627
			c20.414,21.409,30.532,46.858,29.259,73.593c-1.419,29.805-13.422,54.269-34.71,70.744
			c-26.467,20.483-65.211,27.324-106.323,18.767c-1.345-0.28-2.752-0.282-4.066,0.115c-3.581,1.084-5.814,4.295-5.814,7.768v46.029
			c0,22.45-17.287,40.756-39.356,41.674c-16.655,0.698-33.441-4.254-41.486-7.06v-45.402c10.113,4.374,19.288,5.171,27.387,2.359
			c9.408-3.264,15.729-12.293,15.729-22.469V220.968h37.726v45.811c0,3.265,1.952,6.243,4.98,7.464
			c26.582,10.729,54.122,9.836,73.655-2.386c11.143-6.973,24.817-20.896,26.685-47.63c0.745-10.657-1.202-21.259-5.588-31.181
			c-2.285-5.169-9-6.493-12.996-2.497l-0.094,0.094c-2.362,2.362-2.959,5.923-1.61,8.978c3.303,7.482,4.724,15.397,4.16,23.48
			c-1.103,15.788-7.719,27.909-19.133,35.051c-13.746,8.603-34.008,9.644-53.89,2.994v-48.261c0-4.465-3.62-8.084-8.084-8.084
			h-53.895c-4.465,0-8.084,3.62-8.084,8.084v122.922c0,3.294-1.954,6.185-4.861,7.195c-6.172,2.139-14.977-0.403-25.475-7.356
			c-2.238-1.482-5.091-1.926-7.595-0.961c-3.157,1.217-5.185,4.233-5.185,7.546v64.674c0,3.234,1.927,6.157,4.9,7.431
			c1.026,0.44,24.277,10.274,49.539,10.274c1.29,0,2.589-0.025,3.887-0.08c30.759-1.278,54.853-26.679,54.853-57.827v-36.339
			c9.39,1.464,18.651,2.188,27.688,2.188c31.577-0.002,60.401-8.838,82.243-25.743c25.148-19.464,39.314-48.081,40.965-82.762
			C416.334,193.234,404.362,162.862,381.158,138.528z"/>
	</g>
</g>
<g>
</g>
<g>
</g>
<g>
</g>
<g>
</g>
<g>
</g>
<g>
</g>
<g>
</g>
<g>
</g>
<g>
</g>
<g>
</g>
<g>
</g>
<g>
</g>
<g>
</g>
<g>
</g>
<g>
</g>
</svg>
