<?xml version="1.0" encoding="UTF-8" standalone="no"?>
<!-- Created with Inkscape (http://www.inkscape.org/) -->

<svg
   xmlns:dc="http://purl.org/dc/elements/1.1/"
   xmlns:cc="http://creativecommons.org/ns#"
   xmlns:rdf="http://www.w3.org/1999/02/22-rdf-syntax-ns#"
   xmlns:svg="http://www.w3.org/2000/svg"
   xmlns="http://www.w3.org/2000/svg"
   xmlns:sodipodi="http://sodipodi.sourceforge.net/DTD/sodipodi-0.dtd"
   xmlns:inkscape="http://www.inkscape.org/namespaces/inkscape"
   width="2.5in"
   height="0.75in"
   viewBox="0 0 63.5 19.05"
   version="1.1"
   id="svg3190"
   inkscape:version="0.92.1 r15371"
   sodipodi:docname="logo.svg">
  <defs
     id="defs3184" />
  <sodipodi:namedview
     id="base"
     pagecolor="#ffffff"
     bordercolor="#666666"
     borderopacity="1.0"
     inkscape:pageopacity="0.0"
     inkscape:pageshadow="2"
     inkscape:zoom="1.0076756"
     inkscape:cx="370.87387"
     inkscape:cy="182.23888"
     inkscape:document-units="mm"
     inkscape:current-layer="layer1"
     showgrid="false"
     units="in"
     height="4.5in"
     inkscape:window-width="1366"
     inkscape:window-height="705"
     inkscape:window-x="-8"
     inkscape:window-y="-8"
     inkscape:window-maximized="1" />
  <metadata
     id="metadata3187">
    <rdf:RDF>
      <cc:Work
         rdf:about="">
        <dc:format>image/svg+xml</dc:format>
        <dc:type
           rdf:resource="http://purl.org/dc/dcmitype/StillImage" />
        <dc:title></dc:title>
      </cc:Work>
    </rdf:RDF>
  </metadata>
  <g
     inkscape:label="Camada 1"
     inkscape:groupmode="layer"
     id="layer1"
     transform="translate(0,-277.95)">
    <g
       aria-label="Retrô."
       transform="matrix(0.23966699,0,0,0.23966699,-8.8750398,231.55762)"
       style="font-style:normal;font-variant:normal;font-weight:normal;font-stretch:normal;font-size:85.33333588px;line-height:1.25;font-family:'Abril Fatface';-inkscape-font-specification:'Abril Fatface';letter-spacing:0px;word-spacing:0px;fill:#ffffff;fill-opacity:1;stroke:none"
       id="flowRoot3192">
      <path
         d="m 76.5616,231.95656 h -4.522667 v 28.58667 H 77.5856 v 1.62133 H 49.852266 v -1.62133 h 5.546666 v -56.49067 h -5.546666 v -1.62134 h 25.770667 q 11.093334,0 15.701334,1.19467 4.693333,1.10933 6.570667,2.73067 4.095996,3.328 4.095996,10.58133 0,7.25333 -3.583996,10.41067 -3.584,3.072 -10.922667,3.66933 v 0.256 q 6.912,0.93867 9.642667,4.096 2.730666,3.15733 2.730666,10.58133 v 4.52267 q 0,4.43733 0.42667,5.97334 0.512,1.536 2.048,1.536 1.536,0 2.38933,-1.36534 0.93867,-1.45067 1.70667,-5.97333 l 1.45066,0.17066 q -0.93866,7.25334 -3.328,9.72801 -2.304,2.47466 -9.30133,2.47466 -6.997333,0 -9.984,-3.24266 -2.901333,-3.328 -2.901333,-12.37334 v -6.22933 q 0,-4.77867 -1.28,-6.99734 -1.194667,-2.21866 -4.522667,-2.21866 z m -4.522667,-27.904 v 26.28266 H 74.7696 q 4.864,0 7.168,-2.98666 2.389333,-2.98667 2.389333,-9.728 v -2.47467 q 0,-6.74133 -2.304,-8.87467 -2.218666,-2.21866 -7.168,-2.21866 z"
         id="path3200"
         inkscape:connector-curvature="0"
         style="fill:#ffffff" />
      <path
         d="m 132.2016,263.01789 q -11.008,0 -16.55466,-5.632 -5.46134,-5.71733 -5.46134,-15.78667 0,-10.15466 6.144,-15.53066 6.22934,-5.376 15.78667,-5.376 19.37067,0 18.60267,19.456 h -24.064 v 3.328 q 0,8.36266 2.13333,12.62933 2.13333,4.26667 7.424,4.26667 9.89867,0 12.97067,-10.58134 l 1.536,0.256 q -1.62134,6.14401 -5.888,9.55734 -4.18134,3.41333 -12.62934,3.41333 z m -5.46133,-24.576 h 8.78933 v -4.18133 q 0,-6.912 -0.85333,-9.38667 -0.768,-2.56 -3.24267,-2.56 -2.38933,0 -3.584,2.73067 -1.10933,2.64533 -1.10933,9.216 z"
         id="path3202"
         inkscape:connector-curvature="0"
         style="fill:#ffffff" />
      <path
         d="m 158.0256,249.96189 v -26.88 h -4.69333 v -1.536 h 4.69333 v -11.008 l 15.872,-3.92533 v 14.93333 h 11.09334 v 1.536 H 173.8976 v 28.75733 q 0,4.01067 0.768,5.88801 0.85334,1.87733 3.41334,1.87733 2.56,0 4.43733,-2.56 1.96267,-2.56 2.56,-6.99734 l 1.45067,0.17067 q -0.68267,5.888 -3.75467,9.38667 -3.072,3.41333 -10.15467,3.41333 -7.08266,0 -10.83733,-2.816 -3.75467,-2.816 -3.75467,-10.24 z"
         id="path3204"
         inkscape:connector-curvature="0"
         style="fill:#ffffff" />
      <path
         d="m 215.92693,223.93522 q -3.15733,0 -5.54666,4.096 -2.38934,4.096 -2.38934,9.728 v 22.86934 h 6.05867 v 1.536 h -26.624 v -1.536 h 4.69333 v -37.54667 h -4.69333 v -1.536 h 20.56533 v 8.192 q 1.10934,-4.352 4.26667,-6.656 3.15733,-2.38933 7.168,-2.38933 4.01067,0 6.48533,2.304 2.56,2.21866 2.56,6.4 0,4.096 -1.87733,6.31466 -1.87733,2.21867 -5.80267,2.21867 -3.84,0 -5.71733,-2.56 -1.792,-2.56 -0.42667,-7.08267 h 3.072 q 2.13334,-4.352 -1.792,-4.352 z"
         id="path3206"
         inkscape:connector-curvature="0"
         style="fill:#ffffff" />
      <path
         d="m 256.82161,245.35389 v -7.25333 q 0,-8.27734 -0.93867,-12.032 -0.85333,-3.84 -4.096,-3.84 -1.87733,0 -3.072,1.10933 -1.10933,1.024 -1.62133,3.49867 -0.768,3.84 -0.768,11.69066 v 6.656 q 0,9.30134 0.512,11.17867 0.59733,1.87734 1.19467,3.072 0.93866,2.048 3.66933,2.048 3.328,0 4.352,-3.84 0.768,-2.73067 0.768,-12.288 z m -5.29067,17.664 q -10.66666,0 -16.128,-5.46133 -5.46133,-5.46134 -5.46133,-15.616 0,-10.24 5.80267,-15.70134 5.888,-5.54666 16.46933,-5.54666 10.58133,0 15.78667,5.12 5.20533,5.03466 5.20533,15.44533 0,21.76 -21.67467,21.76 z m -11.34933,-46.25067 7.59467,-16.21333 q 2.56,-1.36533 5.03466,-1.36533 3.84,0 5.46134,4.096 l 5.20533,13.568 -0.93867,0.59733 -10.66666,-8.87467 -10.66667,8.96 z"
         id="path3208"
         inkscape:connector-curvature="0"
         style="fill:#ffffff" />
      <path
         d="m 285.9176,263.01789 q -3.66933,0 -5.54666,-2.13333 -1.792,-2.21867 -1.792,-5.29067 0,-3.15733 1.87733,-5.29067 1.96267,-2.13333 5.46133,-2.13333 3.49867,0 5.54667,1.792 2.048,1.792 2.048,5.376 0,3.584 -1.96267,5.632 -1.87733,2.048 -5.632,2.048 z"
         id="path3210"
         inkscape:connector-curvature="0"
         style="fill:#ffffff" />
    </g>
  </g>
</svg>
